<?xml version="1.0" encoding="utf-8"?>
<svg xmlns="http://www.w3.org/2000/svg" viewBox="0 0 718 158">
<g fill="#ffffff">
<rect x="30" y="30" width="14" height="14"/>
<rect x="86" y="30" width="14" height="14"/>
<rect x="30" y="44" width="14" height="14"/>
<rect x="86" y="44" width="14" height="14"/>
<rect x="30" y="58" width="14" height="14"/>
<rect x="86" y="58" width="14" height="14"/>
<rect x="30" y="72" width="14" height="14"/>
<rect x="58" y="72" width="14" height="14"/>
<rect x="86" y="72" width="14" height="14"/>
<rect x="30" y="86" width="14" height="14"/>
<rect x="58" y="86" width="14" height="14"/>
<rect x="86" y="86" width="14" height="14"/>
<rect x="30" y="100" width="14" height="14"/>
<rect x="44" y="100" width="14" height="14"/>
<rect x="72" y="100" width="14" height="14"/>
<rect x="86" y="100" width="14" height="14"/>
<rect x="30" y="114" width="14" height="14"/>
<rect x="86" y="114" width="14" height="14"/>
<rect x="128" y="30" width="14" height="14"/>
<rect x="142" y="30" width="14" height="14"/>
<rect x="156" y="30" width="14" height="14"/>
<rect x="114" y="44" width="14" height="14"/>
<rect x="170" y="44" width="14" height="14"/>
<rect x="114" y="58" width="14" height="14"/>
<rect x="170" y="58" width="14" height="14"/>
<rect x="114" y="72" width="14" height="14"/>
<rect x="128" y="72" width="14" height="14"/>
<rect x="142" y="72" width="14" height="14"/>
<rect x="156" y="72" width="14" height="14"/>
<rect x="170" y="72" width="14" height="14"/>
<rect x="114" y="86" width="14" height="14"/>
<rect x="170" y="86" width="14" height="14"/>
<rect x="114" y="100" width="14" height="14"/>
<rect x="170" y="100" width="14" height="14"/>
<rect x="114" y="114" width="14" height="14"/>
<rect x="170" y="114" width="14" height="14"/>
<rect x="212" y="30" width="14" height="14"/>
<rect x="226" y="30" width="14" height="14"/>
<rect x="240" y="30" width="14" height="14"/>
<rect x="198" y="44" width="14" height="14"/>
<rect x="254" y="44" width="14" height="14"/>
<rect x="198" y="58" width="14" height="14"/>
<rect x="212" y="72" width="14" height="14"/>
<rect x="226" y="72" width="14" height="14"/>
<rect x="240" y="72" width="14" height="14"/>
<rect x="254" y="86" width="14" height="14"/>
<rect x="198" y="100" width="14" height="14"/>
<rect x="254" y="100" width="14" height="14"/>
<rect x="212" y="114" width="14" height="14"/>
<rect x="226" y="114" width="14" height="14"/>
<rect x="240" y="114" width="14" height="14"/>
<rect x="282" y="30" width="14" height="14"/>
<rect x="338" y="30" width="14" height="14"/>
<rect x="282" y="44" width="14" height="14"/>
<rect x="296" y="44" width="14" height="14"/>
<rect x="324" y="44" width="14" height="14"/>
<rect x="338" y="44" width="14" height="14"/>
<rect x="282" y="58" width="14" height="14"/>
<rect x="310" y="58" width="14" height="14"/>
<rect x="338" y="58" width="14" height="14"/>
<rect x="282" y="72" width="14" height="14"/>
<rect x="310" y="72" width="14" height="14"/>
<rect x="338" y="72" width="14" height="14"/>
<rect x="282" y="86" width="14" height="14"/>
<rect x="338" y="86" width="14" height="14"/>
<rect x="282" y="100" width="14" height="14"/>
<rect x="338" y="100" width="14" height="14"/>
<rect x="282" y="114" width="14" height="14"/>
<rect x="338" y="114" width="14" height="14"/>
<rect x="380" y="30" width="14" height="14"/>
<rect x="394" y="30" width="14" height="14"/>
<rect x="408" y="30" width="14" height="14"/>
<rect x="366" y="44" width="14" height="14"/>
<rect x="422" y="44" width="14" height="14"/>
<rect x="366" y="58" width="14" height="14"/>
<rect x="366" y="72" width="14" height="14"/>
<rect x="366" y="86" width="14" height="14"/>
<rect x="366" y="100" width="14" height="14"/>
<rect x="422" y="100" width="14" height="14"/>
<rect x="380" y="114" width="14" height="14"/>
<rect x="394" y="114" width="14" height="14"/>
<rect x="408" y="114" width="14" height="14"/>
<rect x="464" y="30" width="14" height="14"/>
<rect x="478" y="30" width="14" height="14"/>
<rect x="492" y="30" width="14" height="14"/>
<rect x="450" y="44" width="14" height="14"/>
<rect x="506" y="44" width="14" height="14"/>
<rect x="450" y="58" width="14" height="14"/>
<rect x="506" y="58" width="14" height="14"/>
<rect x="450" y="72" width="14" height="14"/>
<rect x="464" y="72" width="14" height="14"/>
<rect x="478" y="72" width="14" height="14"/>
<rect x="492" y="72" width="14" height="14"/>
<rect x="506" y="72" width="14" height="14"/>
<rect x="450" y="86" width="14" height="14"/>
<rect x="506" y="86" width="14" height="14"/>
<rect x="450" y="100" width="14" height="14"/>
<rect x="506" y="100" width="14" height="14"/>
<rect x="450" y="114" width="14" height="14"/>
<rect x="506" y="114" width="14" height="14"/>
<rect x="534" y="30" width="14" height="14"/>
<rect x="548" y="30" width="14" height="14"/>
<rect x="562" y="30" width="14" height="14"/>
<rect x="576" y="30" width="14" height="14"/>
<rect x="534" y="44" width="14" height="14"/>
<rect x="590" y="44" width="14" height="14"/>
<rect x="534" y="58" width="14" height="14"/>
<rect x="590" y="58" width="14" height="14"/>
<rect x="534" y="72" width="14" height="14"/>
<rect x="548" y="72" width="14" height="14"/>
<rect x="562" y="72" width="14" height="14"/>
<rect x="576" y="72" width="14" height="14"/>
<rect x="534" y="86" width="14" height="14"/>
<rect x="562" y="86" width="14" height="14"/>
<rect x="534" y="100" width="14" height="14"/>
<rect x="576" y="100" width="14" height="14"/>
<rect x="534" y="114" width="14" height="14"/>
<rect x="590" y="114" width="14" height="14"/>
<rect x="618" y="30" width="14" height="14"/>
<rect x="632" y="30" width="14" height="14"/>
<rect x="646" y="30" width="14" height="14"/>
<rect x="660" y="30" width="14" height="14"/>
<rect x="674" y="30" width="14" height="14"/>
<rect x="646" y="44" width="14" height="14"/>
<rect x="646" y="58" width="14" height="14"/>
<rect x="646" y="72" width="14" height="14"/>
<rect x="646" y="86" width="14" height="14"/>
<rect x="646" y="100" width="14" height="14"/>
<rect x="646" y="114" width="14" height="14"/>
</g>
</svg>
